<?xml version="1.0" encoding="UTF-8"?>
<svg id="Layer_1" data-name="Layer 1" xmlns="http://www.w3.org/2000/svg" xmlns:xlink="http://www.w3.org/1999/xlink" viewBox="0 0 192 50">
  <defs>
    <style>
      .cls-1 {
        fill: url(#linear-gradient);
      }

      .cls-2 {
        fill: #262a37;
      }

      .cls-3 {
        fill: url(#linear-gradient-3);
      }

      .cls-4 {
        fill: url(#linear-gradient-4);
      }

      .cls-5 {
        fill: url(#linear-gradient-2);
      }

      .cls-6 {
        fill: url(#linear-gradient-6);
      }

      .cls-7 {
        fill: url(#linear-gradient-7);
      }

      .cls-8 {
        fill: url(#linear-gradient-5);
      }
    </style>
    <linearGradient id="linear-gradient" x1="564.48" y1="-403.61" x2="564.48" y2="-449.8" gradientTransform="translate(-527.7 -78.55) rotate(45)" gradientUnits="userSpaceOnUse">
      <stop offset=".08" stop-color="#ed2775"/>
      <stop offset=".94" stop-color="#ff7448"/>
    </linearGradient>
    <linearGradient id="linear-gradient-2" x1="547.81" y1="-427.11" x2="581.09" y2="-427.11" xlink:href="#linear-gradient"/>
    <linearGradient id="linear-gradient-3" x1="568.74" y1="-448" x2="561.58" y2="-437.59" xlink:href="#linear-gradient"/>
    <linearGradient id="linear-gradient-4" x1="564.47" y1="-430.55" x2="564.47" y2="-404.95" xlink:href="#linear-gradient"/>
    <linearGradient id="linear-gradient-5" x1="576.8" y1="-422.97" x2="599.17" y2="-422.97" gradientTransform="translate(-537.39 -102.06) rotate(45)" xlink:href="#linear-gradient"/>
    <linearGradient id="linear-gradient-6" x1="569.22" y1="-407.97" x2="564" y2="-429.59" xlink:href="#linear-gradient"/>
    <linearGradient id="linear-gradient-7" x1="571.5" y1="-441.79" x2="564.12" y2="-447.42" xlink:href="#linear-gradient"/>
  </defs>
  <g>
    <path class="cls-1" d="M178.77,47.42c-6.24,5.28-14.39-3.85-8.62-9.64l8.99-9.02c2.18-2.19,3.27-5.05,3.27-7.92,0-2.87-1.09-5.73-3.27-7.92-4.36-4.37-11.43-4.37-15.79,0l-9.07,9.1c-5.8,5.82-14.96-2.35-9.72-8.68,.89-1.07,2.04-1.87,3.51-2.27l13.09-3.52,9.67-2.6c4.19-1.13,8.22-.14,11.28,2.12,.4,.3,.79,.62,1.15,.95l.03,.03c.12,.11,.23,.22,.34,.33h0c.12,.13,.23,.25,.34,.37h.01c.34,.38,.66,.77,.96,1.18,2.26,3.07,3.24,7.12,2.12,11.32l-2.59,9.71-3.44,12.88c-.4,1.5-1.2,2.67-2.28,3.58Z"/>
    <path class="cls-5" d="M183.64,31.87c-3.42,3.43-7.96,5.04-12.43,4.84l7.93-7.95c2.18-2.19,3.27-5.05,3.27-7.92,0-2.87-1.09-5.73-3.27-7.92-4.36-4.37-11.43-4.37-15.79,0l-7.92,7.95c-.2-4.49,1.41-9.04,4.83-12.47,.3-.3,.6-.58,.91-.85l9.67-2.6c4.19-1.13,8.22-.14,11.28,2.12,.4,.3,.79,.62,1.15,.95l.03,.03c.12,.11,.23,.22,.34,.33h0c.12,.13,.23,.25,.34,.37h.01c.34,.38,.66,.77,.96,1.18,2.26,3.07,3.24,7.12,2.12,11.32l-2.59,9.71c-.27,.31-.55,.61-.84,.91Z"/>
    <path class="cls-3" d="M189.17,13.91c.13-2.87-.89-5.79-3.08-7.99-.55-.56-1.16-1.04-1.79-1.44-1.87-1.2-4.03-1.75-6.17-1.65l7.88-1.73c2.43-.53,4.64,1.18,4.95,3.46,.07,.47,.05,.96-.06,1.45l-1.73,7.9Z"/>
    <path class="cls-4" d="M176.09,25.7l-8.8,8.83c-.73,.73-1.58,1.26-2.48,1.6-2.45,.91-5.32,.38-7.29-1.6-1.35-1.35-2.02-3.13-2.02-4.9,0-1.77,.68-3.55,2.02-4.9l8.8-8.83c2.7-2.71,7.07-2.71,9.77,0,.12,.12,.23,.23,.33,.36,2.37,2.72,2.26,6.85-.33,9.44Z"/>
    <path class="cls-8" d="M183.66,24.22l-4.53,4.54c2.18-2.19,3.27-5.05,3.27-7.92,0-2.87-1.09-5.73-3.27-7.92-4.36-4.37-11.43-4.37-15.79,0l4.53-4.54c3.87-3.89,9.88-4.32,14.23-1.3,.55,.38,1.07,.81,1.55,1.3s.92,1.01,1.29,1.56c3.01,4.36,2.58,10.39-1.29,14.28Z"/>
    <path class="cls-6" d="M176.09,25.7l-8.8,8.83c-.73,.73-1.58,1.26-2.48,1.6-3.53-4.93-3.09-11.83,1.33-16.26,2.81-2.82,6.62-4.03,10.28-3.61,2.37,2.72,2.26,6.85-.33,9.44Z"/>
    <path class="cls-7" d="M189.17,13.91c.13-2.87-.89-5.79-3.08-7.99-.55-.56-1.16-1.04-1.79-1.44,2.09-1.06,4.59-1.03,6.66,.07,.07,.47,.05,.96-.06,1.45l-1.73,7.9Z"/>
  </g>
  <g>
    <path class="cls-2" d="M78.89,18.99c-1.36-.92-2.93-1.46-4.71-1.6l6.5-7.25h-4.53l-7.25,8.04v4.3c1.33-.47,2.59-.71,3.78-.71,1.59,0,2.88,.4,3.87,1.21,.99,.81,1.48,1.85,1.48,3.13v.21c0,1.63-.83,2.45-2.5,2.45h-10.81c-.9,0-1.55-.2-1.93-.59-.38-.39-.57-1.05-.57-1.97v-8.93l-.04,.04v-7.18l-4.46,2.38v13.12c0,1.14-.23,1.94-.7,2.42-.46,.47-1.24,.71-2.34,.71h-7.53c-1.1,0-1.87-.24-2.34-.71-.46-.47-.7-1.28-.7-2.42v-8.36l-4.46,2.35v6.58c0,.92-.2,1.58-.59,1.97-.39,.39-1.04,.59-1.95,.59h-2.43c-.9,0-1.55-.2-1.94-.59s-.59-1.05-.59-1.97v-8l-4.46,2.38v5.62c0,.92-.2,1.58-.59,1.97-.39,.39-1.04,.59-1.95,.59h-2.39c-.9,0-1.55-.2-1.95-.59-.39-.39-.59-1.05-.59-1.97v-7.04l-4.5,2.35v9.28c0,1.49-.46,2.65-1.37,3.49-.92,.83-2.19,1.24-3.84,1.24s-2.84-.53-3.82-1.6c-1.02-1.11-1.53-2.57-1.53-4.37s.47-3.47,1.43-5.08l-4.28,.89c-.88,1.4-1.32,3.03-1.32,4.91,0,2.37,.69,4.43,2.07,6.19,1.76,2.25,4.25,3.38,7.46,3.38,2.38,0,4.4-.57,6.07-1.71,1.86-1.3,3.01-3.09,3.46-5.37,.69,.21,1.44,.32,2.25,.32h3.43c1.69-.02,3.09-.49,4.21-1.39,1.12,.92,2.56,1.39,4.32,1.39h3.39c1.83-.05,3.31-.57,4.43-1.56,1.31,1.04,2.92,1.56,4.82,1.56h8.03c1.9,0,3.51-.52,4.82-1.56,1.16,1.04,2.68,1.56,4.53,1.56h11.71c1.86,0,3.37-.51,4.53-1.53,1.33-1.21,2-2.88,2-5.01v-.46c0-3.08-1.21-5.44-3.64-7.08Z"/>
    <path class="cls-2" d="M112.14,36.31c-1.57,0-2.36,.77-2.36,2.31,0,.73,.21,1.32,.64,1.74s1,.64,1.71,.64c1.55,0,2.32-.79,2.32-2.38,0-.71-.21-1.27-.62-1.69-.42-.41-.98-.62-1.7-.62Z"/>
    <path class="cls-2" d="M106.64,36.31c-1.57,0-2.36,.77-2.36,2.31,0,.73,.21,1.32,.64,1.74s1,.64,1.71,.64c1.55,0,2.32-.79,2.32-2.38,0-.71-.21-1.27-.62-1.69-.42-.41-.98-.62-1.69-.62Z"/>
    <path class="cls-2" d="M128.68,13.69c1.55,0,2.32-.79,2.32-2.38,0-.71-.21-1.27-.62-1.69-.42-.41-.98-.62-1.69-.62s-1.29,.21-1.71,.64c-.43,.43-.64,.98-.64,1.67,0,.74,.21,1.32,.64,1.74s1,.64,1.71,.64Z"/>
    <path class="cls-2" d="M126.5,26.21c0,.92-.19,1.58-.57,1.97-.38,.39-1.02,.59-1.93,.59h-4.28c-.9,0-1.55-.2-1.93-.59-.38-.39-.57-1.05-.57-1.97v-8.93l-4.5,2.35v6.58c0,.92-.19,1.58-.57,1.97-.38,.39-1.02,.59-1.93,.59h-9.6v-5.51c0-1.87-.51-3.39-1.54-4.55-1.19-1.35-2.84-2.03-4.96-2.03s-3.74,.66-5,1.99c-1.43,1.52-2.14,3.58-2.14,6.19,0,1.99,.56,3.69,1.68,5.08,1.33,1.66,3.22,2.62,5.67,2.88,.21,.02,.52,.06,.93,.11,.41,.02,.7,.05,.89,.07-.07,.76-.5,1.41-1.27,1.96-.77,.54-1.66,.82-2.66,.82-1.29,0-2.57-.37-3.85-1.1v3.88c1.43,.81,2.89,1.21,4.39,1.21,1.9,0,3.57-.52,5-1.56,1.74-1.28,2.69-2.99,2.86-5.12h10.03c1.74,0,3.18-.46,4.32-1.39,1.14,.92,2.58,1.39,4.32,1.39h5.14c1.88,0,3.4-.53,4.57-1.6,1.33-1.21,2-2.89,2-5.05v-9.14l-4.5,2.35v6.58Zm-30.34,2.52c-.74-.05-1.27-.11-1.61-.18-2.09-.26-3.14-1.54-3.14-3.84,0-2.58,.9-3.88,2.71-3.88,1.36,0,2.03,.78,2.03,2.35v5.55Z"/>
  </g>
</svg>