<?xml version="1.0" encoding="UTF-8"?>
<svg id="Layer_1" data-name="Layer 1" xmlns="http://www.w3.org/2000/svg" xmlns:xlink="http://www.w3.org/1999/xlink" viewBox="0 0 382 100">
  <defs>
    <style>
      .cls-1 {
        fill: url(#linear-gradient);
      }

      .cls-2 {
        fill: #262a37;
      }

      .cls-3 {
        fill: url(#linear-gradient-3);
      }

      .cls-4 {
        fill: url(#linear-gradient-4);
      }

      .cls-5 {
        fill: url(#linear-gradient-2);
      }

      .cls-6 {
        fill: url(#linear-gradient-6);
      }

      .cls-7 {
        fill: url(#linear-gradient-7);
      }

      .cls-8 {
        fill: url(#linear-gradient-5);
      }
    </style>
    <linearGradient id="linear-gradient" x1="564.15" y1="-404.82" x2="564.15" y2="-497.2" gradientTransform="translate(-372.5 -43.25) rotate(45)" gradientUnits="userSpaceOnUse">
      <stop offset=".08" stop-color="#ed2775"/>
      <stop offset=".94" stop-color="#ff7448"/>
    </linearGradient>
    <linearGradient id="linear-gradient-2" x1="530.8" y1="-451.83" x2="597.36" y2="-451.83" xlink:href="#linear-gradient"/>
    <linearGradient id="linear-gradient-3" x1="572.67" y1="-493.6" x2="558.35" y2="-472.78" xlink:href="#linear-gradient"/>
    <linearGradient id="linear-gradient-4" x1="564.13" y1="-458.71" x2="564.13" y2="-407.51" xlink:href="#linear-gradient"/>
    <linearGradient id="linear-gradient-5" x1="565.31" y1="-453.32" x2="610.06" y2="-453.32" gradientTransform="translate(-382.19 -66.76) rotate(45)" xlink:href="#linear-gradient"/>
    <linearGradient id="linear-gradient-6" x1="573.64" y1="-413.55" x2="563.19" y2="-456.78" xlink:href="#linear-gradient"/>
    <linearGradient id="linear-gradient-7" x1="578.19" y1="-481.18" x2="563.42" y2="-492.45" xlink:href="#linear-gradient"/>
  </defs>
  <g>
    <path class="cls-1" d="M356.53,93.83c-12.48,10.56-28.78-7.7-17.23-19.28l17.97-18.03c4.36-4.37,6.54-10.11,6.54-15.84,0-5.73-2.18-11.47-6.54-15.84-8.72-8.75-22.85-8.75-31.57,0l-18.14,18.2c-11.59,11.63-29.92-4.71-19.44-17.36,1.77-2.14,4.07-3.74,7.03-4.53l26.18-7.04,19.33-5.2c8.38-2.25,16.44-.28,22.56,4.25,.81,.59,1.57,1.23,2.31,1.91l.06,.06c.23,.22,.46,.44,.68,.66l.02,.02c.23,.23,.46,.47,.69,.71l.02,.02c.68,.74,1.33,1.52,1.92,2.34,4.52,6.13,6.48,14.23,4.24,22.63l-5.18,19.41-6.88,25.75c-.8,3-2.41,5.34-4.55,7.15Z"/>
    <path class="cls-5" d="M366.28,62.74c-6.83,6.86-15.91,10.09-24.86,9.69l15.85-15.91c4.36-4.37,6.54-10.11,6.54-15.84,0-5.73-2.18-11.47-6.54-15.84-8.72-8.75-22.85-8.75-31.57,0l-15.85,15.9c-.4-8.98,2.82-18.08,9.65-24.94,.59-.59,1.19-1.16,1.82-1.69l19.33-5.2c8.38-2.25,16.44-.28,22.56,4.25,.81,.59,1.57,1.23,2.31,1.91l.06,.06c.23,.22,.46,.44,.68,.66l.02,.02c.23,.23,.46,.47,.69,.71l.02,.02c.68,.74,1.33,1.52,1.92,2.34,4.52,6.13,6.48,14.23,4.24,22.63l-5.18,19.41c-.53,.62-1.09,1.23-1.68,1.81Z"/>
    <path class="cls-3" d="M377.35,26.82c.27-5.75-1.78-11.59-6.16-15.98-1.11-1.11-2.31-2.08-3.58-2.88-3.74-2.4-8.06-3.5-12.34-3.3l15.75-3.47c4.87-1.07,9.29,2.36,9.91,6.91,.13,.93,.1,1.91-.12,2.91l-3.46,15.81Z"/>
    <path class="cls-4" d="M351.18,50.41l-17.6,17.66c-1.45,1.46-3.15,2.52-4.97,3.2-4.91,1.82-10.63,.76-14.57-3.2-2.7-2.71-4.04-6.25-4.04-9.8,0-3.54,1.35-7.09,4.05-9.8l17.6-17.66c5.4-5.42,14.14-5.42,19.53,0,.23,.23,.45,.47,.65,.71,4.73,5.44,4.51,13.71-.65,18.89Z"/>
    <path class="cls-8" d="M366.32,47.44l-9.05,9.08c4.36-4.37,6.54-10.11,6.54-15.84,0-5.73-2.18-11.47-6.54-15.84-8.72-8.75-22.85-8.75-31.57,0l9.05-9.08c7.74-7.77,19.77-8.64,28.46-2.6,1.1,.76,2.14,1.62,3.11,2.6s1.83,2.01,2.59,3.12c6.02,8.72,5.16,20.78-2.59,28.56Z"/>
    <path class="cls-6" d="M351.18,50.41l-17.6,17.66c-1.45,1.46-3.15,2.52-4.97,3.2-7.06-9.85-6.18-23.66,2.65-32.52,5.62-5.64,13.24-8.05,20.57-7.23,4.73,5.44,4.51,13.71-.65,18.89Z"/>
    <path class="cls-7" d="M377.35,26.82c.27-5.75-1.78-11.59-6.16-15.98-1.11-1.11-2.31-2.08-3.58-2.88,4.18-2.11,9.17-2.07,13.32,.15,.13,.93,.1,1.91-.12,2.91l-3.46,15.81Z"/>
  </g>
  <g>
    <path class="cls-2" d="M156.77,36.98c-2.71-1.85-5.85-2.92-9.42-3.2l12.99-14.51h-9.07l-14.49,16.07v8.6c2.66-.95,5.19-1.42,7.57-1.42,3.19,0,5.77,.81,7.74,2.42,1.98,1.61,2.96,3.7,2.96,6.26v.43c0,3.27-1.66,4.9-5,4.9h-21.63c-1.81,0-3.09-.39-3.85-1.17-.76-.78-1.14-2.1-1.14-3.95v-17.85l-.07,.07v-14.37l-8.92,4.77v26.24c0,2.27-.46,3.89-1.39,4.84-.93,.95-2.49,1.42-4.68,1.42h-15.06c-2.19,0-3.75-.47-4.68-1.42-.93-.95-1.39-2.56-1.39-4.84v-16.71l-8.92,4.69v13.16c0,1.85-.39,3.16-1.18,3.95-.79,.78-2.08,1.17-3.89,1.17h-4.85c-1.81,0-3.11-.39-3.89-1.17s-1.18-2.1-1.18-3.95v-16l-8.92,4.77v11.24c0,1.85-.39,3.16-1.18,3.95-.79,.78-2.08,1.17-3.89,1.17h-4.78c-1.81,0-3.11-.39-3.89-1.17-.78-.78-1.18-2.1-1.18-3.95v-14.08l-9,4.69v18.56c0,2.99-.92,5.31-2.75,6.97-1.83,1.66-4.39,2.49-7.67,2.49s-5.69-1.07-7.64-3.2c-2.05-2.23-3.07-5.14-3.07-8.75s.95-6.94,2.86-10.17l-8.57,1.78c-1.76,2.8-2.64,6.07-2.64,9.81,0,4.74,1.38,8.87,4.14,12.38,3.52,4.5,8.49,6.75,14.92,6.75,4.76,0,8.8-1.14,12.14-3.41,3.71-2.61,6.02-6.19,6.93-10.74,1.38,.43,2.88,.64,4.5,.64h6.85c3.38-.05,6.19-.97,8.42-2.77,2.24,1.85,5.12,2.77,8.64,2.77h6.78c3.66-.1,6.61-1.14,8.85-3.13,2.62,2.09,5.83,3.13,9.64,3.13h16.06c3.81,0,7.02-1.04,9.64-3.13,2.33,2.09,5.35,3.13,9.07,3.13h23.41c3.71,0,6.74-1.02,9.07-3.06,2.66-2.42,4-5.76,4-10.03v-.92c0-6.16-2.43-10.88-7.28-14.15Z"/>
    <path class="cls-2" d="M223.28,71.61c-3.14,0-4.71,1.54-4.71,4.62,0,1.47,.43,2.63,1.29,3.48s2,1.28,3.42,1.28c3.09,0,4.64-1.59,4.64-4.76,0-1.42-.42-2.55-1.25-3.38-.83-.83-1.96-1.24-3.39-1.24Z"/>
    <path class="cls-2" d="M212.29,71.61c-3.14,0-4.71,1.54-4.71,4.62,0,1.47,.43,2.63,1.28,3.48s2,1.28,3.43,1.28c3.09,0,4.64-1.59,4.64-4.76,0-1.42-.42-2.55-1.25-3.38-.83-.83-1.96-1.24-3.39-1.24Z"/>
    <path class="cls-2" d="M256.36,26.39c3.09,0,4.64-1.59,4.64-4.77,0-1.42-.42-2.55-1.25-3.38-.83-.83-1.96-1.24-3.39-1.24s-2.57,.43-3.43,1.28c-.86,.85-1.28,1.97-1.28,3.34,0,1.47,.43,2.63,1.28,3.49s2,1.28,3.43,1.28Z"/>
    <path class="cls-2" d="M252.01,51.42c0,1.85-.38,3.16-1.14,3.95-.76,.78-2.05,1.17-3.85,1.17h-8.57c-1.81,0-3.09-.39-3.85-1.17-.76-.78-1.14-2.1-1.14-3.95v-17.85l-8.99,4.69v13.16c0,1.85-.38,3.16-1.14,3.95-.76,.78-2.05,1.17-3.85,1.17h-19.2v-11.02c0-3.74-1.03-6.78-3.07-9.1-2.38-2.7-5.69-4.05-9.92-4.05s-7.47,1.33-10,3.98c-2.86,3.03-4.28,7.16-4.28,12.37,0,3.98,1.12,7.37,3.36,10.17,2.66,3.32,6.45,5.24,11.35,5.76,.43,.05,1.05,.12,1.86,.21,.81,.05,1.4,.1,1.79,.14-.15,1.52-.99,2.82-2.54,3.91-1.55,1.09-3.32,1.63-5.32,1.63-2.57,0-5.14-.73-7.71-2.2v7.75c2.86,1.61,5.78,2.42,8.78,2.42,3.81,0,7.14-1.04,10-3.13,3.47-2.56,5.38-5.97,5.71-10.24h20.06c3.47,0,6.36-.92,8.64-2.77,2.29,1.85,5.16,2.77,8.64,2.77h10.28c3.76,0,6.81-1.07,9.14-3.2,2.67-2.42,4-5.78,4-10.1v-18.28l-8.99,4.69v13.16Zm-60.68,5.05c-1.48-.1-2.55-.21-3.21-.36-4.19-.52-6.28-3.08-6.28-7.68,0-5.17,1.81-7.75,5.43-7.75,2.71,0,4.07,1.57,4.07,4.69v11.09Z"/>
  </g>
</svg>