<?xml version="1.0" encoding="utf-8"?>
<!-- Generator: Adobe Illustrator 27.0.1, SVG Export Plug-In . SVG Version: 6.00 Build 0)  -->
<svg version="1.1" id="Layer_1" xmlns="http://www.w3.org/2000/svg" xmlns:xlink="http://www.w3.org/1999/xlink" x="0px" y="0px"
	 viewBox="0 0 18 20" style="enable-background:new 0 0 18 20;" xml:space="preserve">
<style type="text/css">
	.st0{fill:#FFFFFF;}
</style>
<path class="st0" d="M3,8V6c0-3.3,2.7-6,6-6s6,2.7,6,6v2h1c1.1,0,2,0.9,2,2v8c0,1.1-0.9,2-2,2H2c-1.1,0-2-0.9-2-2v-8
	c0-1.1,0.9-2,2-2H3z M8,14.7V17h2v-2.3c1-0.6,1.3-1.8,0.7-2.7C10.2,11,9,10.7,8,11.3C7,11.8,6.7,13,7.3,14C7.4,14.3,7.7,14.6,8,14.7
	z M6,6v2h6V6c0-1.7-1.3-3-3-3S6,4.3,6,6z"/>
</svg>
