<?xml version="1.0" standalone="no"?>
<!DOCTYPE svg PUBLIC "-//W3C//DTD SVG 20010904//EN"
 "http://www.w3.org/TR/2001/REC-SVG-20010904/DTD/svg10.dtd">
<svg version="1.0" xmlns="http://www.w3.org/2000/svg"
 width="200.000000pt" height="200.000000pt" viewBox="0 0 200.000000 200.000000"
 preserveAspectRatio="xMidYMid meet">
<metadata>
Created by potrace 1.14, written by Peter Selinger 2001-2017
</metadata>
<g transform="translate(0.000000,200.000000) scale(0.100000,-0.100000)"
fill="#000000" stroke="none">
<path d="M1738 1955 c-2 -2 -15 -6 -28 -9 -14 -2 -47 -10 -75 -16 -27 -6 -61
-14 -75 -16 -14 -2 -36 -7 -50 -11 -14 -3 -28 -7 -32 -7 -18 -2 -14 -12 5 -12
197 -4 379 -174 394 -369 3 -36 8 -64 10 -61 11 11 73 301 73 342 0 52 -23 98
-66 130 -30 23 -49 29 -95 31 -31 1 -59 0 -61 -2z"/>
<path d="M1226 1818 c-32 -4 -100 -19 -150 -33 -50 -14 -163 -45 -251 -69 -88
-25 -263 -72 -388 -106 -284 -76 -319 -95 -372 -205 -81 -166 58 -366 254
-365 85 1 120 26 361 264 240 238 284 270 398 295 224 47 437 -77 512 -300 19
-53 21 -79 17 -157 -4 -82 -9 -101 -42 -168 -33 -67 -62 -101 -256 -297 -240
-243 -260 -271 -260 -367 -1 -186 190 -321 355 -251 71 31 148 121 161 189 3
19 37 144 106 397 133 490 150 560 151 635 5 324 -277 578 -596 538z"/>
<path d="M1093 1435 c-23 -7 -57 -22 -75 -33 -53 -33 -431 -423 -453 -467 -27
-56 -28 -184 -1 -239 23 -46 82 -108 122 -129 72 -37 173 -38 248 -4 66 31
448 412 485 485 33 63 35 167 5 232 -58 126 -202 193 -331 155z"/>
</g>
</svg>
